<?xml version="1.0" encoding="utf-8"?>
<!-- Generator: Adobe Illustrator 26.3.1, SVG Export Plug-In . SVG Version: 6.00 Build 0)  -->
<svg version="1.1" id="Layer_1" xmlns="http://www.w3.org/2000/svg" xmlns:xlink="http://www.w3.org/1999/xlink" x="0px" y="0px"
	 viewBox="0 0 496.9 221.5" style="enable-background:new 0 0 496.9 221.5;" xml:space="preserve">
<style type="text/css">
	.st0{fill:#FFFFFF;}
	.st1{fill:#A661FF;}
</style>
<path id="fullLogo" class="st0" d="M54.2,174.9H35.8v46.6H18.3v-46.6H0v-15.5h54.2V174.9z"/>
<path id="fullLogo-2" class="st0" d="M117.9,159.3v62.2h-17.5v-23.9H79.1v23.9H61.6v-62.2h17.5V182h21.4v-22.7H117.9z"/>
<path id="fullLogo-3" class="st0" d="M146.3,174.9v8.2h28.8v14.5h-28.8v8.4h31.6v15.5h-49.1v-62.2h49.1v15.5L146.3,174.9
	L146.3,174.9z"/>
<path id="fullLogo-4" class="st0" d="M136.3,95.2H118v46.6h-17.5V95.2H82.1V79.7h54.2V95.2z"/>
<path id="fullLogo-5" class="st0" d="M198.2,141.9h-18c-0.8-1.7-1.1-3.6-1.2-6.3l-0.3-7.1c-0.3-7.1-3.6-8.1-8.5-8.1h-9.1v21.5h-17.5
	V79.7h30.6c16.9,0,23.1,8.7,23.1,18.4c0,6-3.1,11.6-9.7,14.6c7.3,2.7,8.3,7.9,8.6,14.6l0.3,8.3C196.8,138.2,197.4,140.4,198.2,141.9
	L198.2,141.9z M171.7,107.6c5.2,0,7.8-2.6,7.8-7.2c0-4.5-2.6-7.2-7.8-7.2h-10.5v14.3L171.7,107.6L171.7,107.6z"/>
<path id="fullLogo-6" class="st0" d="M245.7,133.7h-24.4l-2.6,8.1h-17.8L223,79.7h21l22.9,62.2h-18.5L245.7,133.7L245.7,133.7z
	 M241,119.3l-4.6-14.3c-1-3.2-2.1-6.6-3-9.9c-1,3.3-1.9,6.6-3,9.9l-4.5,14.3H241L241,119.3z"/>
<path id="fullLogo-7" class="st0" d="M331.9,110.8c0,18.3-10,31.1-32.2,31.1h-27.2V79.7h27.2C321.9,79.7,331.9,92.4,331.9,110.8
	L331.9,110.8z M313.7,110.8c0-12.1-6.1-16.4-14.4-16.4H290v32.8h9.3C307.6,127.2,313.7,122.9,313.7,110.8L313.7,110.8z"/>
<path id="fullLogo-8" class="st0" d="M340.2,79.7h17.5v62.2h-17.5V79.7z"/>
<path id="fullLogo-9" class="st0" d="M424.9,79.7v62.2h-18.4l-13.2-22.1c-3.2-5.5-5.9-10-8.6-15.4c0.3,9.3,0.4,17.6,0.4,27.3v10.1
	h-16.6V79.7H387l13.2,22.1c2.5,4.3,5.9,10,8.6,15.5c-0.3-9.3-0.4-17.6-0.4-27.4V79.7H424.9L424.9,79.7z"/>
<path id="fullLogo-10" class="st0" d="M496.9,106.2v35.6H485l-1.7-8.1c-4,6.4-11.7,9.5-20.1,9.5c-18.1,0-30-12.6-30-32.5
	s12-32.5,32.2-32.5c16.6,0,28.7,8.5,30.7,22.6h-17.8c-1.7-4.7-5.9-7.7-12.7-7.7c-9,0-14.2,6.6-14.2,17.6c0,11,5.4,17.6,15.2,17.6
	c6.1,0,11-3.4,12.3-8.8h-11.4v-13.3L496.9,106.2L496.9,106.2z"/>
<path id="fullLogo-11" class="st1" d="M409.5,21.7c0,13.1-8.8,21.7-23.8,21.7H374v18.9h-17.5V0h29.2C400.7,0,409.5,8.6,409.5,21.7
	L409.5,21.7z M392.2,21.7c0-4.7-3.1-7-7.8-7H374v14h10.4C389,28.7,392.2,26.4,392.2,21.7z"/>
<path id="fullLogo-12" class="st1" d="M417.8,0h17.5v62.2h-17.5V0z"/>
<path id="fullLogo-13" class="st1" d="M496.9,15.5h-18.3v46.6h-17.5V15.5h-18.3V0h54.2L496.9,15.5L496.9,15.5z"/>
</svg>
