<svg id="Layer_1" data-name="Layer 1" xmlns="http://www.w3.org/2000/svg" xmlns:xlink="http://www.w3.org/1999/xlink" viewBox="0 0 141.73 141.73"><defs><radialGradient id="radial-gradient" cx="80.89" cy="64.11" r="55.56" gradientTransform="translate(0 -9.44)" gradientUnits="userSpaceOnUse"><stop offset="0" stop-color="#6dcff6"/><stop offset="0.12" stop-color="#69c9f1"/><stop offset="0.29" stop-color="#5eb9e1"/><stop offset="0.47" stop-color="#4c9dc8"/><stop offset="0.68" stop-color="#3377a6"/><stop offset="0.89" stop-color="#124779"/><stop offset="1" stop-color="#002b60"/></radialGradient><radialGradient id="radial-gradient-2" cx="56.01" cy="34.11" r="1.37" gradientTransform="translate(0 -9.44)" gradientUnits="userSpaceOnUse"><stop offset="0" stop-color="#c7eafb"/><stop offset="1" stop-color="#6dcff6"/></radialGradient><radialGradient id="radial-gradient-3" cx="94.55" cy="59.44" r="53.27" gradientTransform="translate(0 -9.44)" gradientUnits="userSpaceOnUse"><stop offset="0" stop-color="#c7eafb"/><stop offset="0.16" stop-color="#c4e9fb"/><stop offset="0.31" stop-color="#b9e7fa"/><stop offset="0.44" stop-color="#a7e3fa"/><stop offset="0.57" stop-color="#8ddef9"/><stop offset="0.7" stop-color="#6dd7f7"/><stop offset="0.83" stop-color="#45cef6"/><stop offset="0.95" stop-color="#16c5f4"/><stop offset="1" stop-color="#00c0f3"/></radialGradient><radialGradient id="radial-gradient-4" cx="94.55" cy="59.44" r="53.27" xlink:href="#radial-gradient-3"/><radialGradient id="radial-gradient-5" cx="94.55" cy="59.44" r="53.27" xlink:href="#radial-gradient-3"/><radialGradient id="radial-gradient-6" cx="94.55" cy="59.44" r="53.27" xlink:href="#radial-gradient-3"/><radialGradient id="radial-gradient-7" cx="94.55" cy="59.36" r="53.15" xlink:href="#radial-gradient-3"/><radialGradient id="radial-gradient-8" cx="94.55" cy="59.44" r="53.27" xlink:href="#radial-gradient-3"/><radialGradient id="radial-gradient-9" cx="94.55" cy="59.44" r="53.27" xlink:href="#radial-gradient-3"/><radialGradient id="radial-gradient-10" cx="94.55" cy="59.44" r="53.26" xlink:href="#radial-gradient-3"/><radialGradient id="radial-gradient-11" cx="94.55" cy="59.44" r="53.27" xlink:href="#radial-gradient-3"/><clipPath id="clip-path"><ellipse cx="69.52" cy="69.25" rx="49.57" ry="49.61" fill="none"/></clipPath><radialGradient id="radial-gradient-12" cx="72.8" cy="78.15" r="60.75" xlink:href="#radial-gradient-2"/><radialGradient id="radial-gradient-13" cx="72.8" cy="78.15" r="60.75" xlink:href="#radial-gradient-2"/><radialGradient id="radial-gradient-14" cx="72.8" cy="78.15" r="60.75" xlink:href="#radial-gradient-2"/><radialGradient id="radial-gradient-15" cx="72.8" cy="78.15" r="60.74" xlink:href="#radial-gradient-2"/><radialGradient id="radial-gradient-16" cx="72.8" cy="78.15" r="60.74" xlink:href="#radial-gradient-2"/><radialGradient id="radial-gradient-17" cx="72.8" cy="78.15" r="60.74" xlink:href="#radial-gradient-2"/><radialGradient id="radial-gradient-18" cx="72.8" cy="78.15" r="60.74" xlink:href="#radial-gradient-2"/><radialGradient id="radial-gradient-19" cx="72.8" cy="78.15" r="60.75" xlink:href="#radial-gradient-2"/><radialGradient id="radial-gradient-20" cx="72.8" cy="78.15" r="60.74" xlink:href="#radial-gradient-2"/><radialGradient id="radial-gradient-21" cx="72.8" cy="78.15" r="60.75" xlink:href="#radial-gradient-2"/><radialGradient id="radial-gradient-22" cx="72.8" cy="78.15" r="60.74" xlink:href="#radial-gradient-2"/><radialGradient id="radial-gradient-23" cx="72.8" cy="78.15" r="60.75" xlink:href="#radial-gradient-2"/><radialGradient id="radial-gradient-24" cx="72.8" cy="78.16" r="60.75" xlink:href="#radial-gradient-2"/><radialGradient id="radial-gradient-25" cx="72.8" cy="78.15" r="60.75" xlink:href="#radial-gradient-2"/><radialGradient id="radial-gradient-26" cx="72.8" cy="78.15" r="60.75" xlink:href="#radial-gradient-2"/><radialGradient id="radial-gradient-27" cx="72.8" cy="78.15" r="60.75" xlink:href="#radial-gradient-2"/><radialGradient id="radial-gradient-28" cx="72.8" cy="78.15" r="60.75" xlink:href="#radial-gradient-2"/></defs><title>world</title><ellipse cx="69.52" cy="69.25" rx="49.57" ry="49.61" fill="url(#radial-gradient)"/><path d="M55.94,26l1.39-1.16s.09-.27-.7-.15S57,24,57,24s.55-.89-.53-.54a3.55,3.55,0,0,0-1.73,1.64v1.12l.58-.21.35-.91H56Z" fill="url(#radial-gradient-2)"/><path d="M44.71,38.83s-.62.47-.68.77.34.53.34.53l1-1,.29-.06.24-.24h.35l1.56-1.24s.47.74.47-.41l.32.18.41-.59h.91l.74-.35.38.44.85-.06.91-.53.71-.15.24-.5h.85l.47.29s.15.92,1.15.24l.56-.32h.94L56.25,35h.56l-.06-.41h.68s.29,1.68,1.12.44-.26-1.39-.26-1.39l.21-.68.94.18s.53,1.45,1-.38h.68l-.27-.65h.82v-1l.71.27.53-.27-.47-.59A6.36,6.36,0,0,1,64.94,29c1.73-.63-.14-.5-.37-.51a.58.58,0,0,0-.11-.53s1.16.11.88-.71-1.26-.27-1.26-.27h-.56l0-.36-1.12.37L62,26.18h-.68l.41-.85s.47-.35-.38-.23c0,0,1.53-.87-.27-1S58.84,24,58.84,24l-1.06.57s.12.29.35.29l-1,.69,0,.63-.38.47-.38-.11-.85.56.47.6-.09.28L53.4,30s-2.35.36-.5.44l.09.47-1.32.8-.68,0v.32h.32l-1.21.77-.62-.38a.8.8,0,0,0-.53.47l-.71.12-1,.95.32.53-1,0-.91,1.36-.82.77-.06.59-.53.38,0,.62-.56.09.15.29h.29Z" fill="url(#radial-gradient-3)"/><path d="M25.17,47.06s.93.2,2.7-2.64l.35.34.71-1.09,1.18.41s-1,1.12-.94,1.53.94.26.94.26A1.94,1.94,0,0,0,31.88,45c.53-1-1,.09-1,.09l-.06-1L31.41,43,32,41.85l.36.29s2-1.3-.94-.81L32,41l.18-.79L33,41l.51-.4v1.54s.29,1.13,1.18.5.59.67-.94.91l-.94,1.23-.06,1,1,.45L33.94,45l2.77-2.87s-.53-1.71.77-1.54V39.8l1.18-2.19,1.18-1.44.71-.67h1l-.24-1L39.35,35,40.53,34l.53-.39.47-.16.24-.6L43.06,31s.47-.66-1.12.43l-2.12,1.05-2.12,1.82L37,34l-2,1.39,1.65-1.78,1-.31a2.75,2.75,0,0,0,.77-1.24,10.92,10.92,0,0,1,2.36-2.22,13.79,13.79,0,0,0,2-1.59l2.53-.24v.3l-.94.4-.29.93,1.88-1.4.76-.07.41-.59v.72l1.12-.54a7.6,7.6,0,0,1,1.88-.36c1.24-.11-2.24,1.72-2.24,1.72s-.18.65-1.18.65l-.29.66H45.18s.24-1.53-.77,0l-1.88,2.89H44l1.24-1.55.94-.86.35.44-1.18,1,1.83-.34a8.2,8.2,0,0,0,1.53-2.42l.59.32v-.66h1.09s.5-.35,0-.65c0,0,1.36-.31.22-.6,0,0,3-.47,1.34-1.32,0,0,3-1.07-.18-1.23s1.46-1.4,1.46-1.4.72,1,1.84-.28.59-2,1.53-1.91v.85l1.35-.5V21a48.09,48.09,0,0,0-21.5,11.28A42,42,0,0,0,25.17,47.06Z" fill="url(#radial-gradient-4)"/><path d="M54.69,41.22,54,40.13s-.85-.55.71-.71c0,0,.47-.27-.47-.27a1.26,1.26,0,0,0,.59-.71c.15-.49,1-.22.9.65l.3.16s.62-.49.56.22l.75.23.63-.29s1.22.6,0,1.14c0,0-.14,1.09-1.06.65C56.9,41.22,55.16,41.92,54.69,41.22Z" fill="url(#radial-gradient-5)"/><path d="M56.77,53.92l-1.25-.12s-.94.32-.08-1c0,0,.1-.53-.5.19a1.21,1.21,0,0,0-.15-.88c-.27-.41.48-.91,1-.29l.31-.13s0-.77.52-.3l.65-.44.18-.65s1.21-.57.84.7c0,0,.71.77-.19,1.21C58.16,52.23,57.58,54,56.77,53.92Z" fill="url(#radial-gradient-6)"/><path d="M82.06,41.39a1.8,1.8,0,0,1-2-.81s.39-.75-.36-.75c0,0-.12-.48,1.41-.39l.66-.81s.42-.87-.9-.93c0,0-2-1.08-2.85-.51L76.93,37l-.69-.8H74.56v.45l-.72.57S71.59,37,72.22,38.5l-.66.33v.91l-.81.12-.45.45.24.87s-1.92,1.09-2,2.29a2,2,0,0,1-1.32.39v.6h-1s-.63.45.87.45v.3h-1l.52,1.14.54-.18-.09.39-1,.6s-1.19.45.58,1.14l1.11.48,1.26-1.36s.51,1,.78,1c0,0,.09,3.4.51,1.69l.24.48-.42.45s-2.16,1.21.06.27l.36.35h1l.21-.78L73,50.21,73,48.44l-.36-.15V48l.54,0,.74-.45-.29-.21s1-.39.09-1a3,3,0,0,1-.87-1.93c-.12-1.3.78-1.38.78-1.38l1.26-.81-.6-.36.15-.48-.21-.21a1.33,1.33,0,0,1,2.07.24l-.36.18a2.83,2.83,0,0,1-1.14,1.87S74.47,46,76,46.33l.21.33.51-.21s.69.18,1.2-.75a1.45,1.45,0,0,1,1.71.09s-2.52.72-2.73,1.32-.18,1,.69,1.12l.09,1-.45.27s-2-2.39-1,2.22l-.9.19,0,.57a1.42,1.42,0,0,0-2.25.36s-1.2.18-1.35.57c0,0-1.14-1.45-1.59-.21l-1,.06-.51-.87-.15-.81.51-.09,0-.45.39-.12s.27-3.29-.84-1A1.7,1.7,0,0,0,68,52.56v.69a1.61,1.61,0,0,0-1.17.63s-1.17-.45-1.41.27H64.9v.6a.76.76,0,0,0-.42,1s-1.08-.36-1.08.42h-.87v1s-1.29-.12-1.47.75H60.4s-1.2-1.21-.39.27l-.87.42-.3-.48-1.41.18s.06,1.71,1.41,1.29l0,.51h.6l-.45.39s1.47,2.59-.18,4c0,0-1.89-.75-2.28-.24l-2.07-.63-.39-.45-1.2.12s-.81.39,0,1.51c0,0-.63,1.23-.36,1.93l-1,1.27a2.15,2.15,0,0,0,1.71,3.1l1.08,1.38,2.73-.39.21.24.51-.66,1-.24,0-.75.81-.66-.3-.33v-.57l.33-.21A3.06,3.06,0,0,1,61,67.63a1.61,1.61,0,0,0,1.77-2,1.79,1.79,0,0,1,1.53-.48s.75,1.75,2.19-.15l.63-.15.33-.57s1-.48,1.59,1.17c0,0-.21,1.14.81,1.27l1.35,1.27h.75s0,.69.81.6.39.66.39.66l.54.12s1.53,2-1.41,2.26c0,0-1-.63-1.41-.06s.42.81.42.81l1.17.42s1.29,1.42,1-.21c0,0-.39-.75.18-.84,0,0,1,.54,1-1.05,0,0,1.41-.6-.06-1,0,0-.09-1.87,1.17-.39,0,0,1.11.66,0-1,0,0-2.82-.6-3.78-2.26a1.51,1.51,0,0,0-1.26-1.57c-1.35-.27.81-1.9.81-1.9a2.58,2.58,0,0,1,1.14.93s-.36,2,2.16,1.84l2,3.07,1.74,2.26.21.9.42.27h0l.48.36h0l.18.09,0,.08.38.07h0l.36.39.3-.3-.72-1.09.42-.48h0s.56-.78-.57-.9c0,0,1.32-.39-.33-1.48l-.06-.39.39,0s1.29,1.18.84,0l.39.06.06-.27-.54-.24s.87,0,1-.57c0,0,.9-.36,1,1.08s.54,1.69.6.75c0,0,.54-.21.24.81l-.45.24.06.42H84v.42l.9.51-.48.48.69.21.21-.63,1.11.12-.75.42,1.35.15.27-1h1.11s1.14,1.36,1.74-.27c0,0-.12-.66.75-.57s.63-.51.63-.51a14.46,14.46,0,0,1,.64,2.29l-.36,4.07s-2.71.12-3.13.66a9.91,9.91,0,0,1-1.59,1.36l-3.36-.3a5.32,5.32,0,0,0-2.4-.3s-.24-1.69-2.61.21l-.3,1.69-.48.72a.52.52,0,0,1-.84,0,2.37,2.37,0,0,0-2.55-.72l-.84-1.17s-1.38-1.9-2.19-.54c0,0-.81.33-1.11,0s-.84-1.15-1.62-1-.21-.81.66-1.29-.21-1.45-.21-1.45l.36-1-1.5-.57-.72.51-1.68,0s-.63-.84-1.29.3-.54-2-5.39.33l-.13.06-1.5.66-1-.6L56,73.8l-1.43-1.29s0-1.06-1.39,1.17l-.54.93a3.31,3.31,0,0,0-3.27,3.73,5.38,5.38,0,0,1-2.4,1.6c-1.11.15-1.38-.3-1.47.87,0,0-1.44-.06-1.59,1.75l-1.23.66v.21h.15l-1,1.21L41.43,86l.69.9s-1,.18-.12,2.17a1.89,1.89,0,0,0-.57,1.72s-1.77.81.09,1.54c0,0-1.5,2.14,1.11,2.47,0,0-1,.42.18,1a4.87,4.87,0,0,1,2.07,3.37l2,1.9h.45L49,103s4.17-.12,5.58.9a3,3,0,0,0,3.12,0h4.38s.57.75,1.08.63c0,0,.42,2.29,1.59.79l1.8.51-.14-.6.38,0,.51.75H68l-.15,3-.24-1.14L67,109.28l1.41,1.27,2,1.16.2.56,1.12,1.13s.24.48-.24.48l.56.6s1,.76-.6.88c0,0-.84.08-.8.84,0,0-1.12.92.28,1.2a3.34,3.34,0,0,1,1.64.76l2.1.43a55.7,55.7,0,0,0,11.15-2.31l3.84-1.77.48-.8s5.68-2.17,6.48-5.38v-1.2l-.32-.48s10.48-10,11.12-17.67c0,0,.16-1.61-1,.72,0,0-1.92,1.13-2.24,1.93l-3,1.29S103.1,91.15,98.7,91c0,0-1.12-3.29-2.64-2.65l-.4-2-.32-.72.24-.72-1.28-.32s.72-1.12-.56-1.12-2-3.05-2-3.05.64.24,1-.8A15.66,15.66,0,0,0,97.17,84a1.76,1.76,0,0,0,1.76,2.33s.72,1.45,1.28,1.53c0,0-.08,1.61.88,2l.24,1.12,1.12.4s1.44-2.33,2.32-2.25.88-2.09,2.16-3.05a1.93,1.93,0,0,0,1-2,3.42,3.42,0,0,0,1.76-2.57c.08-1.69,1.84-5.86,1.84-5.86l-2-.24L108.94,74l-.64.56a3.06,3.06,0,0,1-2.16,3s-1-2.77-2.64-2.21a.89.89,0,0,0-1-1.12s.88-3.45,2.4-.4l2,.56,1.6-2.09.72,1.37a15.21,15.21,0,0,0,4.16-3.94l1.72.64,1.08-1.28v2.65s.92,5.92,2.12,6.24c0,0,2-9.58-.19-18.39a45.07,45.07,0,0,0-10.54-22.07S97.6,24.15,80,20.76c-.88-.17-1.76-.36-2.67-.5l2.21,1.33s2,1.61,3.35,1a7.87,7.87,0,0,0,2.24.74l-.48,1.42.72.41s-6.08-.87-2.4,1c0,0,1,2.12,2.24,2s-2.64,1.2,3,1.93l-1.84.88-2.08-.16,1.44,1.16,1.92,1.25s-2.24.05-2.24.79l1,.74s-1,.16-1.12.68c0,0-1-.68-1.44,2.37l-1.36.31.16,1.93S79.35,40,82.06,41.39Z" fill="url(#radial-gradient-7)"/><path d="M59,56.25a.82.82,0,0,0,1.26,0c.71-.67,1.1.3,1.1.3s.47.41.71-1.13h.55s1.34-1.22-.32-1.46c0,0-.08-2.81-2-3.48l0-.36s3.63-1.15,0-1.35L61,48.3s-.41-1.34-1-.44l-.2.4h-.39l0,.83-.39.55-.28,1.15.75-.67L60,53.2s-2.25-.08-1,1c0,0-2.07.4-.38.67,0,0,.42,1.19,1.25.2l-.24.67S56.59,56,59,56.25Z" fill="url(#radial-gradient-8)"/><path d="M80.4,30.62s-.33-.63.87-1.27l.11,1.27.33.24.22,1.41A2.57,2.57,0,0,0,84,33.54c1.29-.09.64.65-.11.47s-2,.18-2.18-.78Z" fill="url(#radial-gradient-9)"/><path d="M67.81,67.28s.24-.37,1,.09l-.67.45,0,.26-.71.55a1.63,1.63,0,0,0-.06,1.55c.44.69-.16.55-.29.08s-.71-1.07-.23-1.45Z" fill="url(#radial-gradient-10)"/><path d="M88.81,74.38s-.38.24-.84-.49l.79-.13.14-.22.87-.2a1.63,1.63,0,0,0,.7-1.38c-.11-.81.38-.44.3.05s.2,1.27-.39,1.41Z" fill="url(#radial-gradient-11)"/><path d="M83.4,67.51s1.23.63,1.86-1.08-.25,1.68,2.62-1.71c0,0,1.83-1.17,1.77-.19l3.8-.22s2-1.68-.68-2.54c0,0-1.23-.19-1.29-.7l-1.86-.44-.06-.54h.57l-.06-.82h.32l0-.41h-.69s-.41-.29.95-.67c0,0,.35-.79-.76-.19s-.73.95-.73.95-2.05.29-.54,1.49l.69-.06-.06.54s-1.42.41-1.58,1.11-.35-.79-.35-.79l-.82-.09.63-.89s-1.48.57-1.45-.38-1,0-1,1.77L84,62s.32,2.25-.6,3.1l1.48,1.43-1.14.38S83.94,67.47,83.4,67.51Z" fill="#6dcff6"/><g clip-path="url(#clip-path)"><path d="M64.65,122.92C46.72,97.26,47.78,69.44,51.83,50.62A125.49,125.49,0,0,1,65,15.58l.21.13a125.29,125.29,0,0,0-13.18,35C48,69.45,47,97.19,64.85,122.77l-.21.15Z" fill="url(#radial-gradient-12)"/><path d="M55.12,118.94C37,95.59,37.94,69.81,41.95,52.3A113.17,113.17,0,0,1,55.11,19.58l.21.14A112.94,112.94,0,0,0,42.19,52.37c-4,17.46-5,43.15,13.13,66.41l-.2.15Z" fill="url(#radial-gradient-13)"/><path d="M47.12,118.94C26.71,95.95,27.8,70.15,32.3,52.56a109.1,109.1,0,0,1,14.81-33l.2.15A108.84,108.84,0,0,0,32.54,52.63C28.05,70.16,27,95.86,47.31,118.78l-.19.17Z" fill="url(#radial-gradient-14)"/><path d="M40.13,118.95C18.49,96.41,19.64,70.58,24.42,52.89a109.27,109.27,0,0,1,15.7-33.32l.2.15A109,109,0,0,0,24.66,53c-4.76,17.63-5.9,43.36,15.65,65.81l-.18.17Z" fill="url(#radial-gradient-15)"/><path d="M74.6,122.23l-.2-.15C93.74,96,92.6,68.68,88.24,50.33A112.33,112.33,0,0,0,74,16.41l.21-.14a112.65,112.65,0,0,1,14.28,34c4.37,18.4,5.51,45.82-13.89,72Z" fill="url(#radial-gradient-16)"/><path d="M69.2,122.88C51,77.34,68.61,16.23,68.79,15.62l.24.07c-.18.61-17.74,61.63.4,107.1l-.23.09Z" fill="url(#radial-gradient-17)"/><path d="M70.85,122.24l-.23-.1c11.93-47.73-.19-105.23-.4-105.81l.24-.08c.21.57,12.27,58.16.39,106Z" fill="url(#radial-gradient-18)"/><path d="M84.08,118.94l-.2-.15C102,95.52,101,69.82,97,52.37A112.94,112.94,0,0,0,83.88,19.71l.21-.14A113.22,113.22,0,0,1,97.25,52.3c4,17.51,5,43.29-13.17,66.63Z" fill="url(#radial-gradient-19)"/><path d="M92.08,118.94l-.19-.17c20.34-22.91,19.26-48.62,14.76-66.16a108.85,108.85,0,0,0-14.77-32.9l.2-.15a109.11,109.11,0,0,1,14.81,33c4.51,17.59,5.59,43.39-14.82,66.38Z" fill="url(#radial-gradient-20)"/><path d="M99.07,118.95l-.18-.17C120.45,96.32,119.3,70.58,114.54,53A109,109,0,0,0,98.88,19.72l.2-.15a109.22,109.22,0,0,1,15.7,33.32c4.78,17.7,5.93,43.52-15.71,66.06Z" fill="url(#radial-gradient-21)"/><path d="M69,24.57A90.64,90.64,0,0,1,21.15,11l.13-.21c49.54,30.2,98.22.31,98.71,0l.13.21A106.11,106.11,0,0,1,69,24.57Z" fill="url(#radial-gradient-22)"/><path d="M69,55.69A90.65,90.65,0,0,1,21.15,42.16l.13-.21c49.54,30.2,98.22.31,98.71,0l.13.21A106.1,106.1,0,0,1,69,55.69Z" fill="url(#radial-gradient-23)"/><path d="M69,38.63A90.65,90.65,0,0,1,21.15,25.1l.13-.21c49.54,30.2,98.22.31,98.71,0l.13.21A106.1,106.1,0,0,1,69,38.63Z" fill="url(#radial-gradient-24)"/><path d="M69.12,73.72A103.73,103.73,0,0,1,14.46,58.3l.13-.21C44,76,72.89,75.06,92,71.1a116.21,116.21,0,0,0,34.71-13l.13.21A116.54,116.54,0,0,1,92,71.35a113.08,113.08,0,0,1-22.91,2.38Z" fill="url(#radial-gradient-25)"/><path d="M69.21,88.35A97.89,97.89,0,0,1,17.62,73.8l.13-.21c27.74,16.91,55,16,73,12.28a109.64,109.64,0,0,0,32.75-12.28l.13.21A109.88,109.88,0,0,1,90.83,86.11a106.68,106.68,0,0,1-21.62,2.24Z" fill="url(#radial-gradient-26)"/><path d="M69.3,101.92A91.38,91.38,0,0,1,21.15,88.34l.13-.21c49.57,30.22,98.22.31,98.71,0l.14.21A101.54,101.54,0,0,1,89.48,99.82a99.54,99.54,0,0,1-20.18,2.09Z" fill="url(#radial-gradient-27)"/><path d="M69,114.91a90.64,90.64,0,0,1-47.85-13.53l.13-.21c49.54,30.21,98.22.31,98.71,0l.13.21A106.07,106.07,0,0,1,69,114.91Z" fill="url(#radial-gradient-28)"/></g></svg>